<svg width="702" height="901" viewBox="0 0 702 901" fill="none" xmlns="http://www.w3.org/2000/svg">
<path d="M655.222 676.853L603.455 640.863C603.455 640.863 581.808 625.721 580.176 576.018C578.544 526.313 582.983 486.236 550.878 421.05C518.774 355.863 534.751 224.198 534.751 224.198C534.751 224.198 550.754 156.844 527.614 149.877C504.474 142.911 495.492 163.554 482.269 201.409C469.048 239.265 463.274 374.204 420.894 347.627C378.514 321.051 151.202 203.269 151.202 203.269C151.202 203.269 121.662 181.864 95.7875 163.115C81.3637 152.664 33.5898 115.935 20.833 115.144C6.33717 114.246 4.96201 131.327 17.8794 159.945C30.7978 188.562 132.513 349.456 132.513 349.456L125.826 395.447L89.1369 345.307L42.3973 356.689L92.4444 401.728L72.9277 456.8L40.1306 456.095L94.8863 492L116.068 462.548L109.086 510.564L62.0207 494.259C62.0207 494.259 21.9936 490.855 8.2925 513.874C-5.40852 536.894 19.0792 547.496 19.0792 547.496C19.0792 547.496 50.8345 572.686 95.1818 606.179L92.9502 621.526C92.9502 621.526 293.608 766.667 368.64 778.797C383.233 781.156 393.827 782.807 401.432 783.938C412.489 786.219 419.958 789.683 424.469 792.366L429.591 795.975C429.825 796.182 429.945 796.299 429.945 796.299C430.069 796.361 430.177 796.414 430.297 796.473L575.432 898.75C682.094 821.417 694.749 702.547 694.749 702.547L655.222 676.853Z" fill="#555252"/>
<path d="M449.091 52.1149L188.39 11.6498C159.82 7.21562 133.062 26.7824 128.627 55.3542L29.8388 691.802C25.4045 720.374 44.9714 747.132 73.5431 751.567L334.242 792.031C362.814 796.467 389.572 776.899 394.006 748.328L492.794 111.879C497.229 83.307 477.662 56.5502 449.091 52.1149Z" fill="#1C1D3E"/>
<path d="M450.549 42.7148L189.85 2.24968C161.277 -2.18453 134.521 17.3823 130.085 45.954L31.2971 682.402C26.8629 710.975 46.4297 737.733 75.0014 742.167L335.7 782.631C364.273 787.066 391.031 767.5 395.465 738.928L494.253 102.48C498.687 73.9069 479.121 47.15 450.549 42.7148Z" fill="#141422"/>
<path d="M450.3 64.0666L407.144 57.3684L406.738 59.9849C405.014 71.0832 394.619 78.6852 383.52 76.9616L243.506 55.2287C232.406 53.5062 224.805 43.1126 226.528 32.0124L226.934 29.3968L183.777 22.6976C168.348 20.303 153.899 30.8694 151.504 46.2983L52.0895 686.789C49.695 702.218 60.2603 716.666 75.6892 719.061L342.213 760.429C357.641 762.824 372.09 752.258 374.484 736.83L473.9 96.3394C476.295 80.9105 465.728 66.4611 450.3 64.0666Z" fill="#3BD4BD"/>
<path d="M338.998 46.7423L294.935 39.9029C293.497 39.6796 292.15 40.6645 291.928 42.103L291.863 42.5143C291.64 43.9529 292.625 45.3001 294.063 45.5224L338.125 52.3618C339.563 52.5851 340.91 51.6013 341.134 50.1637L341.196 49.7494C341.42 48.3118 340.435 46.9656 338.998 46.7423Z" fill="white"/>
<path d="M364.341 47.7648L363.423 47.6214C360.526 47.1726 357.81 49.1571 357.36 52.0562L357.23 52.8997C356.779 55.7978 358.765 58.5124 361.663 58.9622L362.58 59.1046C365.479 59.5544 368.194 57.57 368.644 54.6709L368.774 53.8273C369.224 50.9282 367.238 48.2146 364.341 47.7648Z" fill="white"/>
<path d="M75.7189 478.915C42.392 475.627 20.7018 476.843 9.43344 498.668C8.00199 501.443 6.83266 504.297 5.93319 507.164C-0.243696 526.85 6.22105 547.17 26.4561 546.93C49.6387 546.654 116.419 532.532 112.243 501.274C112.243 501.274 109.045 482.203 75.7189 478.915ZM97.4335 397.319C84.8696 392.993 32.4744 375.82 21.7853 406.912C11.0962 438.002 30.3641 465.37 71.7683 461.604C71.7683 461.604 123.483 456.08 127.506 433.277C131.528 410.474 109.996 401.646 97.4335 397.319ZM119.99 333.705C109.504 319.973 99.582 310.409 91.3522 304.506C81.2722 297.276 72.9994 295.89 65.5532 295.423C43.2856 294.025 36.3573 317.631 35.9138 318.733C30.8162 331.409 30.0171 345.749 41.9636 356.923C58.1287 372.043 128.374 399.403 133.374 369.699C133.374 369.699 137.479 356.608 119.99 333.705Z" fill="#645D5D"/>
<rect x="157" y="293" width="200" height="200" rx="100" fill="#1D1D1D"/>
<path d="M301.05 403.812C301.05 383.289 283.69 366.356 261.45 364.137V355H251.55V364.137C229.31 366.356 211.95 383.289 211.95 403.812V412.688H301.05V403.812ZM207 417.125H306V426H207V417.125Z" fill="#3BD4BD"/>
</svg>
