<svg width="41" height="49" viewBox="0 0 41 49" fill="none" xmlns="http://www.w3.org/2000/svg">
<path d="M33.6818 28.5455C33.6818 32.2273 33.017 35.4091 31.6875 38.0909C30.358 40.7727 28.5341 42.8409 26.2159 44.2955C23.8977 45.75 21.25 46.4773 18.2727 46.4773C15.2955 46.4773 12.6477 45.75 10.3295 44.2955C8.01136 42.8409 6.1875 40.7727 4.85795 38.0909C3.52841 35.4091 2.86364 32.2273 2.86364 28.5455C2.86364 24.8636 3.52841 21.6818 4.85795 19C6.1875 16.3182 8.01136 14.25 10.3295 12.7955C12.6477 11.3409 15.2955 10.6136 18.2727 10.6136C21.25 10.6136 23.8977 11.3409 26.2159 12.7955C28.5341 14.25 30.358 16.3182 31.6875 19C33.017 21.6818 33.6818 24.8636 33.6818 28.5455ZM29.5909 28.5455C29.5909 25.5227 29.0852 22.9716 28.0739 20.892C27.0739 18.8125 25.7159 17.2386 24 16.1705C22.2955 15.1023 20.3864 14.5682 18.2727 14.5682C16.1591 14.5682 14.2443 15.1023 12.5284 16.1705C10.8239 17.2386 9.46591 18.8125 8.45455 20.892C7.45455 22.9716 6.95455 25.5227 6.95455 28.5455C6.95455 31.5682 7.45455 34.1193 8.45455 36.1989C9.46591 38.2784 10.8239 39.8523 12.5284 40.9205C14.2443 41.9886 16.1591 42.5227 18.2727 42.5227C20.3864 42.5227 22.2955 41.9886 24 40.9205C25.7159 39.8523 27.0739 38.2784 28.0739 36.1989C29.0852 34.1193 29.5909 31.5682 29.5909 28.5455Z" fill="#3BD4BD"/>
<path d="M16.2413 33.8109L16.1334 16.3566L18.247 16.3436L18.3433 31.9228L26.4568 31.8727L26.4684 33.7476L16.2413 33.8109Z" fill="#BFBEBE"/>
</svg>
